<svg width="44" height="44" viewBox="0 0 44 44" fill="none" xmlns="http://www.w3.org/2000/svg">
<g clip-path="url(#clip0_30_253)">
<path d="M0.650024 8.12012V42.7201H35.25V8.12012H0.650024ZM4.19002 39.1701V28.4001H8.70002V24.8601H4.19002V11.6601H31.7V24.8601H14.48V28.4001H31.71V39.1701H4.19002Z" stroke="white" stroke-width="1.3" stroke-linecap="round" stroke-linejoin="round"/>
<path d="M18.5 11.6602V24.8602" stroke="white" stroke-width="1.3" stroke-linecap="round" stroke-linejoin="round"/>
<path d="M23.65 28.3999V39.1699" stroke="white" stroke-width="1.3" stroke-linecap="round" stroke-linejoin="round"/>
<path d="M0.650024 2.4799V0.649902H9.30002V2.4799" stroke="white" stroke-width="1.3" stroke-linecap="round" stroke-linejoin="round"/>
<path d="M9.30005 2.4799V0.649902H17.94V2.4799" stroke="white" stroke-width="1.3" stroke-linecap="round" stroke-linejoin="round"/>
<path d="M17.94 2.4799V0.649902H26.59V2.4799" stroke="white" stroke-width="1.3" stroke-linecap="round" stroke-linejoin="round"/>
<path d="M26.59 2.4799V0.649902H35.24V2.4799" stroke="white" stroke-width="1.3" stroke-linecap="round" stroke-linejoin="round"/>
<path d="M40.88 8.12012H42.71V16.7701H40.88" stroke="white" stroke-width="1.3" stroke-linecap="round" stroke-linejoin="round"/>
<path d="M40.88 16.77H42.71V25.41H40.88" stroke="white" stroke-width="1.3" stroke-linecap="round" stroke-linejoin="round"/>
<path d="M40.88 25.4102H42.71V34.0602H40.88" stroke="white" stroke-width="1.3" stroke-linecap="round" stroke-linejoin="round"/>
<path d="M40.88 34.0601H42.71V42.7101H40.88" stroke="white" stroke-width="1.3" stroke-linecap="round" stroke-linejoin="round"/>
</g>
<defs>
<clipPath id="clip0_30_253">
<rect width="43.36" height="43.36" fill="white"/>
</clipPath>
</defs>
</svg>
