<svg width="44" height="44" viewBox="0 0 44 44" fill="none" xmlns="http://www.w3.org/2000/svg">
<g clip-path="url(#clip0_30_224)">
<path d="M39.17 18.1298V13.7598L4.19 13.7598V18.1298H39.17Z" stroke="white" stroke-width="1.3" stroke-linecap="round" stroke-linejoin="round"/>
<path d="M12.94 13.7598V18.1298" stroke="white" stroke-width="1.3" stroke-linecap="round" stroke-linejoin="round"/>
<path d="M21.68 13.7598V18.1298" stroke="white" stroke-width="1.3" stroke-linecap="round" stroke-linejoin="round"/>
<path d="M30.43 13.7598V18.1298" stroke="white" stroke-width="1.3" stroke-linecap="round" stroke-linejoin="round"/>
<path d="M37.71 0.649902H5.65C2.88858 0.649902 0.65 2.88848 0.65 5.6499V16.6699C0.65 19.4313 2.88858 21.6699 5.65 21.6699H37.71C40.4714 21.6699 42.71 19.4313 42.71 16.6699V5.6499C42.71 2.88848 40.4714 0.649902 37.71 0.649902Z" stroke="white" stroke-width="1.3" stroke-linecap="round" stroke-linejoin="round"/>
<path d="M7.12 6.50977H10" stroke="white" stroke-width="1.3" stroke-linecap="round" stroke-linejoin="round"/>
<path d="M5.13 35.8501C3.23 35.8501 1.7 37.3901 1.7 39.2801C1.7 41.1701 3.24 42.7101 5.13 42.7101C7.02 42.7101 8.56 41.1701 8.56 39.2801V28.3901" stroke="white" stroke-width="1.3" stroke-linecap="round" stroke-linejoin="round"/>
<path d="M38.23 35.8501C40.13 35.8501 41.66 37.3901 41.66 39.2801C41.66 41.1701 40.12 42.7101 38.23 42.7101C36.34 42.7101 34.8 41.1701 34.8 39.2801V28.3901" stroke="white" stroke-width="1.3" stroke-linecap="round" stroke-linejoin="round"/>
<path d="M17.31 28.3901V42.7101" stroke="white" stroke-width="1.3" stroke-linecap="round" stroke-linejoin="round"/>
<path d="M26.05 28.3901V42.7101" stroke="white" stroke-width="1.3" stroke-linecap="round" stroke-linejoin="round"/>
<path d="M12.94 25.73V34" stroke="white" stroke-width="1.3" stroke-linecap="round" stroke-linejoin="round"/>
<path d="M21.68 25.73V34" stroke="white" stroke-width="1.3" stroke-linecap="round" stroke-linejoin="round"/>
<path d="M30.43 25.73V34" stroke="white" stroke-width="1.3" stroke-linecap="round" stroke-linejoin="round"/>
</g>
<defs>
<clipPath id="clip0_30_224">
<rect width="43.36" height="43.36" fill="white"/>
</clipPath>
</defs>
</svg>
