<svg width="55" height="55" viewBox="0 0 55 55" fill="none" xmlns="http://www.w3.org/2000/svg">
<g clip-path="url(#clip0_14_162)">
<path d="M15.58 41.9701C17.29 40.3201 19.14 41.1101 19.14 41.1101L20.61 39.6401L17.7 36.7301L14.79 33.8201L13.32 35.2901C13.32 35.2901 14.11 37.1401 12.46 38.8501C11.11 40.2401 4.56 43.6601 1.97 46.2701C0.26 47.9801 0.26 50.7601 1.97 52.4701C3.68 54.1801 6.46 54.1801 8.17 52.4701C10.77 49.8801 14.19 43.3201 15.59 41.9801L15.58 41.9701Z" stroke="white" stroke-width="1.35" stroke-linecap="round" stroke-linejoin="round"/>
<path d="M53.75 0.670044L38.68 15.75" stroke="white" stroke-width="1.35" stroke-linecap="round" stroke-linejoin="round"/>
<path d="M36.13 0.670044L29.87 6.94004" stroke="white" stroke-width="1.35" stroke-linecap="round" stroke-linejoin="round"/>
<path d="M53.75 18.3L47.49 24.56" stroke="white" stroke-width="1.35" stroke-linecap="round" stroke-linejoin="round"/>
<path d="M44.94 0.670044L34.27 11.34" stroke="white" stroke-width="1.35" stroke-linecap="round" stroke-linejoin="round"/>
<path d="M53.75 9.48999L43.08 20.16" stroke="white" stroke-width="1.35" stroke-linecap="round" stroke-linejoin="round"/>
<path d="M50.6385 34.0235L20.4026 3.7876L9.61219 14.578L39.8481 44.8139L50.6385 34.0235Z" stroke="white" stroke-width="1.35" stroke-linecap="round" stroke-linejoin="round"/>
<path d="M17.7 36.73L19.57 34.86C20.51 33.92 20.51 32.39 19.57 31.45L4.42 16.3C3.55 15.43 3.55 13.99 4.42 13.12L10.09 7.44999C10.96 6.57999 12.4 6.57999 13.27 7.44999L15.01 9.18999" stroke="white" stroke-width="1.35" stroke-linecap="round" stroke-linejoin="round"/>
</g>
<defs>
<clipPath id="clip0_14_162">
<rect width="54.43" height="54.43" fill="white"/>
</clipPath>
</defs>
</svg>
