<svg width="22" height="26" viewBox="0 0 22 26" fill="none" xmlns="http://www.w3.org/2000/svg">
<path d="M1.7 0.660004H1.69C1.33 0.780004 0.99 0.890004 0.71 1.13C0.26 1.54 0.03 2.02 0 2.61C0 2.65 0 2.68 0 2.72V23.32C0 24.21 0.39 24.84 1.15 25.2C1.42 25.33 1.77 25.4 2.13 25.4C5.97 25.41 9.81 25.4 13.66 25.4H16.42H17.4C18.14 25.4 18.87 25.4 19.61 25.4C20.84 25.4 21.69 24.54 21.69 23.31C21.69 16.46 21.69 9.62 21.69 2.77C21.69 1.71 21.1 0.960004 20.06 0.700004C20.02 0.700004 20 0.680004 19.97 0.660004H1.7ZM20.62 2.85V23.17C20.62 23.96 20.26 24.32 19.47 24.32H2.21C1.43 24.32 1.07 23.96 1.07 23.19V2.87C1.07 2.1 1.43 1.74 2.21 1.74H19.49C20.25 1.74 20.62 2.11 20.62 2.86V2.85Z" fill="white"/>
<path d="M3.6 10.67H18.1C18.55 10.67 18.74 10.48 18.74 10.02V4.25001C18.74 3.80001 18.55 3.60001 18.11 3.60001H3.58C3.13 3.60001 2.94 3.79001 2.94 4.25001V10.02C2.94 10.49 3.12 10.67 3.6 10.67ZM4.03 4.90001C4.03 4.79001 4.12 4.70001 4.23 4.70001H17.46C17.57 4.70001 17.66 4.79001 17.66 4.90001V9.39001C17.66 9.50001 17.57 9.59001 17.46 9.59001H4.24C4.13 9.59001 4.04 9.50001 4.04 9.39001V4.90001H4.03Z" fill="white"/>
<path d="M18.12 12.54H15.35C14.93 12.54 14.73 12.74 14.73 13.15V21.84C14.73 22.26 14.93 22.45 15.35 22.45H18.1C18.55 22.45 18.74 22.26 18.75 21.81V13.17C18.75 12.73 18.56 12.54 18.13 12.54H18.12ZM17.66 21.16C17.66 21.27 17.57 21.36 17.46 21.36H16.02C15.91 21.36 15.82 21.27 15.82 21.16V13.83C15.82 13.72 15.91 13.63 16.02 13.63H17.46C17.57 13.63 17.66 13.72 17.66 13.83V21.16Z" fill="white"/>
<path d="M6.96 13.08C6.96 12.77 6.74 12.55 6.43 12.55C5.95 12.55 5.47 12.55 4.99 12.55C4.49 12.55 3.99 12.55 3.48 12.55C3.16 12.55 2.94 12.77 2.94 13.09C2.94 14.06 2.94 15.04 2.94 16.01C2.94 16.35 3.16 16.56 3.5 16.56C4.46 16.56 5.43 16.56 6.39 16.56C6.74 16.56 6.96 16.35 6.96 15.99C6.96 15.67 6.96 15.35 6.96 15.03V14.55V14.08C6.96 13.75 6.96 13.41 6.96 13.08ZM5.87 15.28C5.87 15.39 5.78 15.48 5.67 15.48H4.22C4.11 15.48 4.02 15.39 4.02 15.28V13.84C4.02 13.73 4.11 13.64 4.22 13.64H5.67C5.78 13.64 5.87 13.73 5.87 13.84V15.28Z" fill="white"/>
<path d="M12.27 12.54C11.8 12.54 11.32 12.54 10.85 12.54C10.38 12.54 9.90003 12.54 9.43003 12.54C9.06003 12.54 8.85003 12.75 8.84003 13.11C8.84003 14.07 8.84003 15.02 8.84003 15.98C8.84003 16.34 9.05003 16.55 9.40003 16.55C9.73003 16.55 10.06 16.55 10.39 16.55H10.82H11.29H12.24C12.64 16.55 12.85 16.35 12.85 15.95C12.85 15.01 12.85 14.07 12.85 13.13C12.85 12.74 12.65 12.53 12.26 12.53L12.27 12.54ZM11.77 15.27C11.77 15.38 11.68 15.47 11.57 15.47H10.13C10.02 15.47 9.93003 15.38 9.93003 15.27V13.82C9.93003 13.71 10.02 13.62 10.13 13.62H11.57C11.68 13.62 11.77 13.71 11.77 13.82V15.27Z" fill="white"/>
<path d="M3.53 22.45C3.85 22.45 4.18 22.45 4.5 22.45H6.35C6.76 22.45 6.96 22.25 6.96 21.85C6.96 20.91 6.96 19.97 6.96 19.03C6.96 18.64 6.76 18.43 6.37 18.43C5.92 18.43 5.47 18.43 5.03 18.43C4.53 18.43 4.03 18.43 3.53 18.43C3.16 18.43 2.95 18.64 2.94 19C2.94 19.96 2.94 20.91 2.94 21.87C2.94 22.23 3.16 22.44 3.53 22.44V22.45ZM4.03 19.72C4.03 19.61 4.12 19.52 4.23 19.52H5.66C5.77 19.52 5.86 19.61 5.86 19.72V21.17C5.86 21.28 5.77 21.37 5.66 21.37H4.23C4.12 21.37 4.03 21.28 4.03 21.17V19.72Z" fill="white"/>
<path d="M12.31 18.44C11.85 18.44 11.39 18.44 10.93 18.44C10.42 18.44 9.90002 18.44 9.39002 18.44C9.06002 18.44 8.84002 18.66 8.83002 19C8.83002 19.34 8.83002 19.67 8.83002 20.01V20.44V20.86C8.83002 21.21 8.83002 21.56 8.83002 21.91C8.83002 22.23 9.05002 22.45 9.37002 22.45C10.34 22.45 11.32 22.45 12.29 22.45C12.63 22.45 12.85 22.23 12.85 21.9C12.85 20.93 12.85 19.96 12.85 18.98C12.85 18.66 12.63 18.44 12.31 18.44ZM11.77 21.17C11.77 21.28 11.68 21.37 11.57 21.37H10.13C10.02 21.37 9.93002 21.28 9.93002 21.17V19.73C9.93002 19.62 10.02 19.53 10.13 19.53H11.57C11.68 19.53 11.77 19.62 11.77 19.73V21.17Z" fill="white"/>
</svg>
