<svg width="4" height="18" viewBox="0 0 4 18" fill="none" xmlns="http://www.w3.org/2000/svg">
<path d="M2.92188 12.5586H1L0.519531 0.195312H3.40234L2.92188 12.5586ZM0.871094 16.7773C0.558594 16.4648 0.402344 16.1016 0.402344 15.6875C0.402344 15.2656 0.558594 14.8984 0.871094 14.5859C1.18359 14.2734 1.54688 14.1172 1.96094 14.1172C2.375 14.1172 2.73828 14.2734 3.05078 14.5859C3.36328 14.8984 3.51953 15.2656 3.51953 15.6875C3.51953 16.1016 3.36328 16.4648 3.05078 16.7773C2.73828 17.082 2.375 17.2344 1.96094 17.2344C1.54688 17.2344 1.18359 17.082 0.871094 16.7773Z" fill="white"/>
</svg>
