<svg width="29" height="29" viewBox="0 0 29 29" fill="none" xmlns="http://www.w3.org/2000/svg">
<g clip-path="url(#clip0_19_64)">
<path d="M14.05 28.3301C9.65003 28.2201 6.05003 26.5801 3.27003 23.2701C1.55003 21.2301 0.510027 18.8701 0.150027 16.2201C-0.389973 12.2001 0.490027 8.53009 3.02003 5.33009C5.21003 2.57009 8.07003 0.860093 11.54 0.220093C13.48 -0.139907 15.4 -0.0599074 17.32 0.390093C17.93 0.530093 18.43 0.810093 18.58 1.45009C18.81 2.45009 17.81 3.38009 16.81 3.16009C10.04 1.64009 4.44003 5.75009 3.04003 11.4201C1.39003 18.1001 5.92003 24.2901 12.17 25.3001C18.16 26.2701 23.81 22.4101 25.07 16.5001C25.21 15.8701 25.23 15.2101 25.3 14.5601C25.33 14.2701 25.32 13.9801 25.38 13.7001C25.54 13.0601 26.13 12.6801 26.85 12.7301C27.58 12.7801 28.09 13.2201 28.13 13.9101C28.21 15.2401 28.04 16.5601 27.66 17.8401C26.02 23.2401 22.44 26.6101 16.98 27.9901C16.58 28.0901 16.16 28.1501 15.74 28.2001C15.15 28.2601 14.55 28.2901 14.04 28.3201L14.05 28.3301Z" fill="#5CA192"/>
<path d="M14.02 16.27C14.58 15.63 15.12 15.02 15.66 14.4C18.01 11.7 20.38 9.01999 22.71 6.29999C23.28 5.63999 24.17 5.65998 24.79 6.18998C25.33 6.64998 25.38 7.53999 24.86 8.12999C23.74 9.43999 22.6 10.73 21.46 12.03C19.35 14.44 17.24 16.85 15.13 19.26C14.48 20 13.66 20.03 12.97 19.34C11.59 17.97 10.22 16.59 8.85001 15.21C8.22001 14.58 8.19001 13.77 8.76001 13.18C9.33001 12.59 10.15 12.57 10.79 13.18C11.86 14.19 12.91 15.21 14.02 16.26V16.27Z" fill="#5CA192"/>
</g>
<defs>
<clipPath id="clip0_19_64">
<rect width="28.16" height="28.33" fill="white"/>
</clipPath>
</defs>
</svg>
