<svg width="19" height="26" viewBox="0 0 19 26" fill="none" xmlns="http://www.w3.org/2000/svg">
<path d="M3.00001 23.95C2.87001 23.76 2.74001 23.57 2.61001 23.38C1.93001 22.4 1.48001 21.3 1.11001 20.17C0.25001 17.56 -0.10999 14.88 0.0300104 12.14C0.18001 9.39001 0.70001 6.72001 1.88001 4.21001C2.30001 3.31001 2.80001 2.46001 3.48001 1.73001C4.25001 0.900012 5.17001 0.400012 6.32001 0.420012C7.19001 0.430012 8.06001 0.420012 8.92001 0.490012C9.96001 0.570012 10.74 1.39001 10.81 2.42001C10.85 2.99001 10.83 3.57001 10.82 4.15001C10.8 5.04001 10.81 5.93001 10.74 6.82001C10.66 7.88001 9.83001 8.66001 8.76001 8.71001C7.96001 8.74001 7.16001 8.72001 6.31001 8.73001C6.21001 9.08001 6.08001 9.44001 6.00001 9.82001C5.55001 11.94 5.53001 14.07 5.94001 16.21C5.99001 16.49 6.10001 16.75 6.17001 17.03C6.20001 17.16 6.26001 17.18 6.38001 17.18C7.09001 17.19 7.80001 17.18 8.50001 17.23C9.76001 17.32 10.54 18.1 10.55 19.36C10.56 20.74 10.53 22.13 10.47 23.51C10.42 24.56 9.58001 25.36 8.53001 25.44C8.15001 25.47 7.76001 25.46 7.37001 25.46C6.77001 25.46 6.17001 25.47 5.58001 25.44C4.91001 25.4 4.31001 25.13 3.79001 24.71C3.76001 24.68 3.71001 24.67 3.68001 24.65L3.01001 23.96L3.00001 23.95ZM4.60001 2.43001C3.99001 3.03001 3.45001 3.86001 3.03001 4.77001C1.93001 7.15001 1.44001 9.67001 1.31001 12.26C1.18001 14.8 1.51001 17.29 2.30001 19.71C2.70001 20.95 3.21001 22.15 4.05001 23.17C4.57001 23.8 5.19001 24.17 6.02001 24.16C6.70001 24.16 7.38001 24.16 8.05001 24.16C8.15001 24.16 8.25001 24.16 8.36001 24.15C8.86001 24.1 9.18001 23.79 9.21001 23.29C9.24001 22.76 9.24001 22.23 9.25001 21.69C9.26001 20.91 9.28001 20.13 9.28001 19.35C9.28001 18.83 9.00001 18.52 8.48001 18.46C8.38001 18.45 8.28001 18.45 8.17001 18.45C7.46001 18.44 6.74001 18.43 6.03001 18.42C5.52001 18.41 5.18001 18.16 5.04001 17.69C4.94001 17.37 4.84001 17.05 4.76001 16.73C4.39001 15.19 4.31001 13.62 4.41001 12.04C4.49001 10.7 4.68001 9.39001 5.18001 8.14001C5.41001 7.58001 5.72001 7.37001 6.32001 7.39001C7.01001 7.41001 7.69001 7.43001 8.38001 7.44001C9.22001 7.45001 9.51001 7.17001 9.52001 6.32001C9.54001 5.16001 9.56001 4.00001 9.57001 2.84001C9.58001 2.08001 9.25001 1.75001 8.49001 1.73001C7.83001 1.72001 7.18001 1.73001 6.52001 1.70001C5.74001 1.67001 5.08001 1.92001 4.61001 2.44001L4.60001 2.43001Z" fill="white"/>
<path d="M16.54 20.25C16.54 20.25 16.51 20.25 16.5 20.25C16.17 20.38 15.87 20.34 15.7 20.13C15.48 19.86 15.48 19.56 15.7 19.25C16.46 18.18 17.02 17.01 17.36 15.74C17.82 13.99 17.84 12.24 17.43 10.48C17.14 9.21001 16.63 8.04001 15.9 6.96001C15.67 6.62001 15.66 6.32001 15.85 6.09001C16.15 5.72001 16.65 5.76001 16.92 6.16001C18.25 8.16001 18.96 10.36 18.99 12.77C19.02 15.15 18.41 17.34 17.16 19.37C17.01 19.62 16.85 19.86 16.69 20.1L16.53 20.25H16.54Z" fill="white"/>
<path d="M13.8501 8.72002C14.1201 9.25002 14.4301 9.76002 14.6401 10.32C15.4801 12.58 15.2701 14.76 14.0301 16.84C13.9301 17 13.8301 17.16 13.7101 17.31C13.4801 17.58 13.1101 17.63 12.8501 17.45C12.5601 17.24 12.4901 16.9 12.6701 16.58C12.8501 16.26 13.0701 15.97 13.2201 15.64C14.1801 13.54 14.0401 11.5 12.8001 9.55002C12.6201 9.27002 12.6401 8.97002 12.8501 8.75002C13.0501 8.53002 13.3501 8.48002 13.6101 8.61002C13.6801 8.65002 13.7401 8.70002 13.8001 8.75002L13.8501 8.73002V8.72002Z" fill="white"/>
</svg>
