<svg width="54" height="54" viewBox="0 0 54 54" fill="none" xmlns="http://www.w3.org/2000/svg">
<g clip-path="url(#clip0_14_147)">
<path d="M32.54 26.88L19.89 16.46L7.23999 26.88" stroke="black" stroke-width="1.35" stroke-linecap="round" stroke-linejoin="round"/>
<path d="M9.94 24.79V37.03H29.84V24.79" stroke="black" stroke-width="1.35" stroke-linecap="round" stroke-linejoin="round"/>
<path d="M23.38 28.29H16.4V37.03H23.38V28.29Z" stroke="black" stroke-width="1.35" stroke-linecap="round" stroke-linejoin="round"/>
<path d="M7.23999 47.02V43.16" stroke="black" stroke-width="1.35" stroke-linecap="round" stroke-linejoin="round"/>
<path d="M32.54 45.09H7.23999" stroke="black" stroke-width="1.35" stroke-linecap="round" stroke-linejoin="round"/>
<path d="M32.54 47.02V43.16" stroke="black" stroke-width="1.35" stroke-linecap="round" stroke-linejoin="round"/>
<path d="M46.19 53.27H0.669983V9.46002H39.11" stroke="black" stroke-width="1.35" stroke-linecap="round" stroke-linejoin="round"/>
<path d="M53.27 46.19V7.75999C53.27 3.84999 50.1 0.679993 46.19 0.679993C42.28 0.679993 39.11 3.84999 39.11 7.75999V46.19" stroke="black" stroke-width="1.35" stroke-linecap="round" stroke-linejoin="round"/>
<path d="M46.19 53.27C50.1002 53.27 53.27 50.1002 53.27 46.19C53.27 42.2798 50.1002 39.11 46.19 39.11C42.2798 39.11 39.11 42.2798 39.11 46.19C39.11 50.1002 42.2798 53.27 46.19 53.27Z" stroke="black" stroke-width="1.35" stroke-linecap="round" stroke-linejoin="round"/>
<path d="M46.19 48.82C47.6425 48.82 48.82 47.6425 48.82 46.19C48.82 44.7375 47.6425 43.56 46.19 43.56C44.7375 43.56 43.56 44.7375 43.56 46.19C43.56 47.6425 44.7375 48.82 46.19 48.82Z" stroke="black" stroke-width="1.35" stroke-linecap="round" stroke-linejoin="round"/>
</g>
<defs>
<clipPath id="clip0_14_147">
<rect width="53.94" height="53.94" fill="black"/>
</clipPath>
</defs>
</svg>
