<svg width="247" height="61" viewBox="0 0 247 61" fill="none" xmlns="http://www.w3.org/2000/svg">
<path d="M37.83 52.41V2.81L76.23 14.54V50.81" stroke="white" stroke-width="4.16" stroke-miterlimit="10"/>
<path d="M7.23 51.87V26.58H54.16V51.11" stroke="white" stroke-width="4.16" stroke-miterlimit="10"/>
<path d="M37.9 10.85L16.03 18.85V26.58" stroke="white" stroke-width="4.16" stroke-miterlimit="10"/>
<path d="M0 51.91H83.46" stroke="white" stroke-width="4.16" stroke-miterlimit="10"/>
<path d="M101.384 30.24C96.8 30.24 93.272 26.688 93.272 22.08C93.272 17.496 96.824 13.92 101.384 13.92C103.808 13.92 106.04 14.952 107.504 16.776C107.672 16.968 107.744 17.136 107.744 17.304C107.744 17.616 107.48 17.88 107.168 17.88C106.952 17.88 106.784 17.784 106.64 17.592C105.32 15.96 103.496 15.072 101.384 15.072C97.52 15.072 94.592 18.12 94.592 22.08C94.592 26.064 97.52 29.064 101.384 29.064C103.496 29.064 105.32 28.2 106.64 26.568C106.784 26.376 106.952 26.28 107.168 26.28C107.48 26.28 107.744 26.544 107.744 26.856C107.744 27.024 107.672 27.168 107.504 27.384C106.064 29.208 103.832 30.24 101.384 30.24ZM116.022 30.24C115.662 30.24 115.398 29.976 115.398 29.592V15.288H110.118C109.806 15.288 109.542 15.024 109.542 14.712C109.542 14.4 109.806 14.16 110.118 14.16H121.95C122.262 14.16 122.526 14.4 122.526 14.712C122.526 15.024 122.262 15.288 121.95 15.288H116.646V29.592C116.646 29.976 116.382 30.24 116.022 30.24ZM137.146 13.92C137.506 13.92 137.77 14.184 137.77 14.544V29.592C137.77 29.976 137.506 30.24 137.146 30.24C136.786 30.24 136.522 29.976 136.522 29.592V16.32L126.394 30C126.25 30.192 126.105 30.24 125.914 30.24C125.554 30.24 125.29 29.976 125.29 29.616V14.568C125.29 14.184 125.554 13.92 125.914 13.92C126.25 13.92 126.538 14.184 126.538 14.568V27.816L136.666 14.16C136.81 13.968 136.93 13.92 137.146 13.92ZM152.501 14.16C152.885 14.16 153.149 14.448 153.149 14.808V29.568C153.149 29.952 152.885 30.24 152.525 30.24C152.189 30.24 151.901 29.952 151.901 29.568V15.288H145.853C145.829 23.904 144.173 28.776 140.885 30.048C140.741 30.096 140.645 30.12 140.549 30.12C140.237 30.12 139.997 29.88 139.997 29.568C139.997 29.304 140.141 29.112 140.453 28.992C143.213 27.768 144.605 23.448 144.605 16.152V14.808C144.605 14.448 144.893 14.16 145.253 14.16H152.501ZM158.468 13.92C158.804 13.92 159.092 14.184 159.092 14.568V20.76H164.012C167.252 20.76 169.052 22.752 169.052 25.368C169.052 28.008 167.252 30 164.012 30H158.492C158.108 30 157.844 29.712 157.844 29.352V14.568C157.844 14.184 158.108 13.92 158.468 13.92ZM163.964 21.888H159.092V28.872H163.964C166.46 28.872 167.78 27.336 167.78 25.392C167.78 23.424 166.46 21.888 163.964 21.888ZM173.374 30.24C173.014 30.24 172.75 29.976 172.75 29.616V14.544C172.75 14.184 173.014 13.92 173.374 13.92C173.71 13.92 173.998 14.184 173.998 14.544V20.88H183.742V14.544C183.742 14.184 184.006 13.92 184.366 13.92C184.726 13.92 184.99 14.184 184.99 14.544V29.616C184.99 29.976 184.726 30.24 184.366 30.24C184.006 30.24 183.742 29.976 183.742 29.616V22.008H173.998V29.616C173.998 29.976 173.71 30.24 173.374 30.24ZM190.32 13.92C190.656 13.92 190.944 14.184 190.944 14.568V20.76H195.864C199.104 20.76 200.904 22.752 200.904 25.368C200.904 28.008 199.104 30 195.864 30H190.344C189.96 30 189.696 29.712 189.696 29.352V14.568C189.696 14.184 189.96 13.92 190.32 13.92ZM205.224 30.24C204.864 30.24 204.6 29.976 204.6 29.592V14.568C204.6 14.184 204.864 13.92 205.224 13.92C205.56 13.92 205.848 14.184 205.848 14.568V29.592C205.848 29.976 205.56 30.24 205.224 30.24ZM195.816 21.888H190.944V28.872H195.816C198.312 28.872 199.632 27.336 199.632 25.392C199.632 23.424 198.312 21.888 195.816 21.888ZM216.556 12.24C214.732 12.24 213.148 10.872 213.148 9.24C213.148 8.928 213.388 8.664 213.7 8.664C213.988 8.664 214.18 8.856 214.228 9.24C214.372 10.392 215.332 11.208 216.556 11.208C217.78 11.208 218.764 10.368 218.86 9.24C218.908 8.856 219.1 8.664 219.388 8.664C219.7 8.664 219.94 8.928 219.94 9.24C219.94 10.872 218.38 12.24 216.556 12.24ZM222.388 13.92C222.748 13.92 223.012 14.184 223.012 14.544V29.592C223.012 29.976 222.748 30.24 222.388 30.24C222.028 30.24 221.764 29.976 221.764 29.592V16.32L211.636 30C211.492 30.192 211.348 30.24 211.156 30.24C210.796 30.24 210.532 29.976 210.532 29.616V14.568C210.532 14.184 210.796 13.92 211.156 13.92C211.492 13.92 211.78 14.184 211.78 14.568V27.816L221.908 14.16C222.052 13.968 222.172 13.92 222.388 13.92Z" fill="white"/>
<path d="M106.64 50.872C107.024 50.872 107.288 51.16 107.288 51.52V54.976C107.288 55.36 107.024 55.624 106.664 55.624C106.328 55.624 106.04 55.36 106.04 54.976V52H93.824V54.976C93.824 55.36 93.56 55.624 93.2 55.624C92.84 55.624 92.576 55.36 92.576 54.976V51.52C92.576 51.16 92.864 50.872 93.248 50.872H93.848C96.2 48.568 97.376 44.176 97.376 37.72V36.808C97.376 36.448 97.664 36.16 98.024 36.16H104.816C105.176 36.16 105.464 36.448 105.464 36.808V50.872H106.64ZM98.6 37.288C98.576 44.104 97.544 48.352 95.264 50.872H104.216V37.288H98.6ZM117.204 35.92C121.74 35.92 125.34 39.496 125.34 44.08C125.34 48.64 121.74 52.24 117.204 52.24C112.668 52.24 109.092 48.664 109.092 44.08C109.092 39.496 112.644 35.92 117.204 35.92ZM117.228 37.072C113.34 37.072 110.412 40.096 110.412 44.056C110.412 48.064 113.34 51.064 117.228 51.064C121.068 51.064 124.02 48.04 124.02 44.056C124.02 40.096 121.068 37.072 117.228 37.072ZM142.529 35.92C142.841 35.92 143.105 36.184 143.105 36.544V51.616C143.105 51.976 142.841 52.24 142.481 52.24C142.121 52.24 141.857 51.976 141.857 51.616V38.584L136.697 46.576C136.505 46.864 136.313 47.008 136.025 47.008C135.761 47.008 135.545 46.864 135.353 46.576L130.217 38.608V51.616C130.217 51.976 129.929 52.24 129.593 52.24C129.233 52.24 128.969 51.976 128.969 51.616V36.544C128.969 36.184 129.209 35.92 129.545 35.92C129.833 35.92 130.001 36.04 130.265 36.424L136.025 45.304L141.809 36.424C142.049 36.04 142.217 35.92 142.529 35.92Z" fill="white"/>
</svg>
